<mxfile host="app.diagrams.net" agent="Mozilla/5.0 (Windows NT 10.0; Win64; x64; rv:131.0) Gecko/20100101 Firefox/131.0" version="24.8.0">
  <diagram name="Page-1" id="rE30tLgevyvUMusTGdz7">
    <mxGraphModel dx="567" dy="366" grid="1" gridSize="10" guides="1" tooltips="1" connect="1" arrows="1" fold="1" page="1" pageScale="1" pageWidth="827" pageHeight="1169" math="0" shadow="0">
      <root>
        <mxCell id="0" />
        <mxCell id="1" parent="0" />
        <mxCell id="FE_86hknBuWFsuFGZ9qb-10" value="" style="group" vertex="1" connectable="0" parent="1">
          <mxGeometry x="320" y="240" width="120" height="120" as="geometry" />
        </mxCell>
        <mxCell id="FE_86hknBuWFsuFGZ9qb-1" value="1" style="whiteSpace=wrap;html=1;aspect=fixed;fillColor=#004C99;strokeColor=#FFFFFF;" vertex="1" parent="FE_86hknBuWFsuFGZ9qb-10">
          <mxGeometry width="40" height="40" as="geometry" />
        </mxCell>
        <mxCell id="FE_86hknBuWFsuFGZ9qb-2" value="2" style="whiteSpace=wrap;html=1;aspect=fixed;fillColor=#0066CC;strokeColor=#FFFFFF;" vertex="1" parent="FE_86hknBuWFsuFGZ9qb-10">
          <mxGeometry x="40" width="40" height="40" as="geometry" />
        </mxCell>
        <mxCell id="FE_86hknBuWFsuFGZ9qb-3" value="0" style="whiteSpace=wrap;html=1;aspect=fixed;fillColor=#003366;strokeColor=#FFFFFF;" vertex="1" parent="FE_86hknBuWFsuFGZ9qb-10">
          <mxGeometry x="80" width="40" height="40" as="geometry" />
        </mxCell>
        <mxCell id="FE_86hknBuWFsuFGZ9qb-4" value="3" style="whiteSpace=wrap;html=1;aspect=fixed;fillColor=#007FFF;strokeColor=#FFFFFF;" vertex="1" parent="FE_86hknBuWFsuFGZ9qb-10">
          <mxGeometry y="40" width="40" height="40" as="geometry" />
        </mxCell>
        <mxCell id="FE_86hknBuWFsuFGZ9qb-6" value="1" style="whiteSpace=wrap;html=1;aspect=fixed;fillColor=#004C99;strokeColor=#FFFFFF;" vertex="1" parent="FE_86hknBuWFsuFGZ9qb-10">
          <mxGeometry x="80" y="40" width="40" height="40" as="geometry" />
        </mxCell>
        <mxCell id="FE_86hknBuWFsuFGZ9qb-7" value="0" style="whiteSpace=wrap;html=1;aspect=fixed;fillColor=#003366;strokeColor=#FFFFFF;" vertex="1" parent="FE_86hknBuWFsuFGZ9qb-10">
          <mxGeometry y="80" width="40" height="40" as="geometry" />
        </mxCell>
        <mxCell id="FE_86hknBuWFsuFGZ9qb-8" value="3" style="whiteSpace=wrap;html=1;aspect=fixed;fillColor=#007FFF;strokeColor=#FFFFFF;" vertex="1" parent="FE_86hknBuWFsuFGZ9qb-10">
          <mxGeometry x="40" y="80" width="40" height="40" as="geometry" />
        </mxCell>
        <mxCell id="FE_86hknBuWFsuFGZ9qb-9" value="2" style="whiteSpace=wrap;html=1;aspect=fixed;fillColor=#0066CC;strokeColor=#FFFFFF;perimeterSpacing=0;" vertex="1" parent="FE_86hknBuWFsuFGZ9qb-10">
          <mxGeometry x="80" y="80" width="40" height="40" as="geometry" />
        </mxCell>
        <mxCell id="FE_86hknBuWFsuFGZ9qb-5" value="4" style="whiteSpace=wrap;html=1;aspect=fixed;fillColor=#3399FF;strokeColor=#FF8000;shadow=1;glass=0;" vertex="1" parent="FE_86hknBuWFsuFGZ9qb-10">
          <mxGeometry x="40" y="40" width="40" height="40" as="geometry" />
        </mxCell>
        <mxCell id="FE_86hknBuWFsuFGZ9qb-11" value="" style="shape=flexArrow;endArrow=classic;html=1;rounded=0;" edge="1" parent="1">
          <mxGeometry width="50" height="50" relative="1" as="geometry">
            <mxPoint x="460" y="299.81" as="sourcePoint" />
            <mxPoint x="500" y="299.81" as="targetPoint" />
          </mxGeometry>
        </mxCell>
        <mxCell id="FE_86hknBuWFsuFGZ9qb-12" value="" style="group" vertex="1" connectable="0" parent="1">
          <mxGeometry x="520" y="240" width="120" height="120" as="geometry" />
        </mxCell>
        <mxCell id="FE_86hknBuWFsuFGZ9qb-13" value="1" style="whiteSpace=wrap;html=1;aspect=fixed;fillColor=#004C99;strokeColor=#FFFFFF;" vertex="1" parent="FE_86hknBuWFsuFGZ9qb-12">
          <mxGeometry width="40" height="40" as="geometry" />
        </mxCell>
        <mxCell id="FE_86hknBuWFsuFGZ9qb-14" value="3" style="whiteSpace=wrap;html=1;aspect=fixed;fillColor=#007FFF;strokeColor=#FFFFFF;" vertex="1" parent="FE_86hknBuWFsuFGZ9qb-12">
          <mxGeometry x="40" width="40" height="40" as="geometry" />
        </mxCell>
        <mxCell id="FE_86hknBuWFsuFGZ9qb-15" value="0" style="whiteSpace=wrap;html=1;aspect=fixed;fillColor=#003366;strokeColor=#FFFFFF;" vertex="1" parent="FE_86hknBuWFsuFGZ9qb-12">
          <mxGeometry x="80" width="40" height="40" as="geometry" />
        </mxCell>
        <mxCell id="FE_86hknBuWFsuFGZ9qb-16" value="4" style="whiteSpace=wrap;html=1;aspect=fixed;fillColor=#3399FF;strokeColor=#FFFFFF;" vertex="1" parent="FE_86hknBuWFsuFGZ9qb-12">
          <mxGeometry y="40" width="40" height="40" as="geometry" />
        </mxCell>
        <mxCell id="FE_86hknBuWFsuFGZ9qb-17" value="2" style="whiteSpace=wrap;html=1;aspect=fixed;fillColor=#0066CC;strokeColor=#FFFFFF;" vertex="1" parent="FE_86hknBuWFsuFGZ9qb-12">
          <mxGeometry x="80" y="40" width="40" height="40" as="geometry" />
        </mxCell>
        <mxCell id="FE_86hknBuWFsuFGZ9qb-18" value="0" style="whiteSpace=wrap;html=1;aspect=fixed;fillColor=#003366;strokeColor=#FFFFFF;" vertex="1" parent="FE_86hknBuWFsuFGZ9qb-12">
          <mxGeometry y="80" width="40" height="40" as="geometry" />
        </mxCell>
        <mxCell id="FE_86hknBuWFsuFGZ9qb-19" value="4" style="whiteSpace=wrap;html=1;aspect=fixed;fillColor=#3399FF;strokeColor=#FFFFFF;" vertex="1" parent="FE_86hknBuWFsuFGZ9qb-12">
          <mxGeometry x="40" y="80" width="40" height="40" as="geometry" />
        </mxCell>
        <mxCell id="FE_86hknBuWFsuFGZ9qb-20" value="2" style="whiteSpace=wrap;html=1;aspect=fixed;fillColor=#0066CC;strokeColor=#FFFFFF;perimeterSpacing=0;" vertex="1" parent="FE_86hknBuWFsuFGZ9qb-12">
          <mxGeometry x="80" y="80" width="40" height="40" as="geometry" />
        </mxCell>
        <mxCell id="FE_86hknBuWFsuFGZ9qb-21" value="0" style="whiteSpace=wrap;html=1;aspect=fixed;fillColor=#003366;strokeColor=#FF8000;shadow=1;glass=0;" vertex="1" parent="FE_86hknBuWFsuFGZ9qb-12">
          <mxGeometry x="40" y="40" width="40" height="40" as="geometry" />
        </mxCell>
        <mxCell id="FE_86hknBuWFsuFGZ9qb-22" value="" style="shape=flexArrow;endArrow=classic;html=1;rounded=0;width=3.846153846153846;endSize=1.8653846153846152;endWidth=5.44378698224852;entryX=0;entryY=0.5;entryDx=0;entryDy=0;" edge="1" parent="FE_86hknBuWFsuFGZ9qb-12">
          <mxGeometry width="50" height="50" relative="1" as="geometry">
            <mxPoint x="40" y="59.98" as="sourcePoint" />
            <mxPoint x="30" y="59.98" as="targetPoint" />
          </mxGeometry>
        </mxCell>
        <mxCell id="FE_86hknBuWFsuFGZ9qb-23" value="" style="shape=flexArrow;endArrow=classic;html=1;rounded=0;width=3.846153846153846;endSize=1.8653846153846152;endWidth=5.44378698224852;entryX=0.5;entryY=0;entryDx=0;entryDy=0;" edge="1" parent="FE_86hknBuWFsuFGZ9qb-12">
          <mxGeometry width="50" height="50" relative="1" as="geometry">
            <mxPoint x="59.91" y="40" as="sourcePoint" />
            <mxPoint x="59.91" y="30" as="targetPoint" />
          </mxGeometry>
        </mxCell>
        <mxCell id="FE_86hknBuWFsuFGZ9qb-24" value="" style="shape=flexArrow;endArrow=classic;html=1;rounded=0;width=3.846153846153846;endSize=1.8653846153846152;endWidth=5.44378698224852;entryX=0;entryY=0.5;entryDx=0;entryDy=0;" edge="1" parent="FE_86hknBuWFsuFGZ9qb-12">
          <mxGeometry width="50" height="50" relative="1" as="geometry">
            <mxPoint x="80" y="59.910000000000004" as="sourcePoint" />
            <mxPoint x="90" y="59.910000000000004" as="targetPoint" />
          </mxGeometry>
        </mxCell>
        <mxCell id="FE_86hknBuWFsuFGZ9qb-25" value="" style="shape=flexArrow;endArrow=classic;html=1;rounded=0;width=3.846153846153846;endSize=1.8653846153846152;endWidth=5.44378698224852;entryX=0.5;entryY=0;entryDx=0;entryDy=0;" edge="1" parent="FE_86hknBuWFsuFGZ9qb-12">
          <mxGeometry width="50" height="50" relative="1" as="geometry">
            <mxPoint x="59.910000000000004" y="80" as="sourcePoint" />
            <mxPoint x="59.910000000000004" y="90" as="targetPoint" />
          </mxGeometry>
        </mxCell>
      </root>
    </mxGraphModel>
  </diagram>
</mxfile>
